<svg width="1280" height="170" viewBox="0 0 1280 170" fill="none" xmlns="http://www.w3.org/2000/svg" role="img" aria-labelledby="stackTagsTitle stackTagsDesc">
  <title id="stackTagsTitle">Stack tags</title>
  <desc id="stackTagsDesc">SwiftUI, UIKit, Swift, CloudKit, Python, Machine Learning, Data Analysis, Data Visualization, Artificial Intelligence, and Figma.</desc>

  <rect x="48" y="0" width="174" height="56" rx="28" fill="#15161C"/>
  <text x="82" y="35" fill="#E2E2EA" font-family="system-ui, -apple-system, BlinkMacSystemFont, 'Segoe UI', sans-serif" font-size="24" font-weight="500">SwiftUI</text>

  <rect x="238" y="0" width="146" height="56" rx="28" fill="#15161C"/>
  <text x="276" y="35" fill="#E2E2EA" font-family="system-ui, -apple-system, BlinkMacSystemFont, 'Segoe UI', sans-serif" font-size="24" font-weight="500">UIKit</text>

  <rect x="400" y="0" width="142" height="56" rx="28" fill="#15161C"/>
  <text x="438" y="35" fill="#E2E2EA" font-family="system-ui, -apple-system, BlinkMacSystemFont, 'Segoe UI', sans-serif" font-size="24" font-weight="500">Swift</text>

  <rect x="558" y="0" width="180" height="56" rx="28" fill="#15161C"/>
  <text x="596" y="35" fill="#E2E2EA" font-family="system-ui, -apple-system, BlinkMacSystemFont, 'Segoe UI', sans-serif" font-size="24" font-weight="500">CloudKit</text>

  <rect x="754" y="0" width="154" height="56" rx="28" fill="#15161C"/>
  <text x="796" y="35" fill="#E2E2EA" font-family="system-ui, -apple-system, BlinkMacSystemFont, 'Segoe UI', sans-serif" font-size="24" font-weight="500">Python</text>

  <rect x="924" y="0" width="308" height="56" rx="28" fill="#15161C"/>
  <text x="962" y="35" fill="#E2E2EA" font-family="system-ui, -apple-system, BlinkMacSystemFont, 'Segoe UI', sans-serif" font-size="24" font-weight="500">Machine Learning</text>

  <rect x="102" y="74" width="238" height="56" rx="28" fill="#15161C"/>
  <text x="140" y="109" fill="#E2E2EA" font-family="system-ui, -apple-system, BlinkMacSystemFont, 'Segoe UI', sans-serif" font-size="24" font-weight="500">Data Analysis</text>

  <rect x="356" y="74" width="300" height="56" rx="28" fill="#15161C"/>
  <text x="394" y="109" fill="#E2E2EA" font-family="system-ui, -apple-system, BlinkMacSystemFont, 'Segoe UI', sans-serif" font-size="24" font-weight="500">Data Visualization</text>

  <rect x="672" y="74" width="340" height="56" rx="28" fill="#15161C"/>
  <text x="710" y="109" fill="#E2E2EA" font-family="system-ui, -apple-system, BlinkMacSystemFont, 'Segoe UI', sans-serif" font-size="24" font-weight="500">Artificial Intelligence</text>

  <rect x="1028" y="74" width="150" height="56" rx="28" fill="#15161C"/>
  <text x="1074" y="109" fill="#E2E2EA" font-family="system-ui, -apple-system, BlinkMacSystemFont, 'Segoe UI', sans-serif" font-size="24" font-weight="500">Figma</text>
</svg>
